<svg width="48" height="48" viewBox="0 0 48 48" fill="none" xmlns="http://www.w3.org/2000/svg">
<rect width="48" height="48" rx="8.88889" fill="white"/>
<path d="M9 16.6H12V27C12 27.6 12.2 28 12.6 28.4C13 28.8 13.4 29 14 29H14.2C14.8 29 15.2 28.8 15.6 28.4C16 28 16.2 27.6 16.2 27V16.6H19.2V27.2C19.2 28.8 18.6 30.1 17.6 31C16.6 32 15.3 32.4 14 32.4C12.7 32.4 11.4 32 10.4 31C9.4 30.1 8.8 28.8 8.8 27.2L9 16.6ZM24.5 16.6H30.8C32 16.6 33 17 33.8 17.8C34.6 18.6 35 19.6 35 20.8V22.4C35 23.4 34.7 24.2 34.2 24.9C33.7 25.6 33 26.1 32.2 26.4L35.2 30.2H31.8L29.2 26.8H27.5V30.2H24.5V16.6ZM27.5 19.4V24H30.6C31.1 24 31.5 23.8 31.8 23.5C32.1 23.2 32.2 22.8 32.2 22.3V21.1C32.2 20.6 32.1 20.2 31.8 19.9C31.5 19.6 31.1 19.4 30.6 19.4H27.5Z" fill="url(#paint0_linear_1545_39)"/>
<defs>
<linearGradient id="paint0_linear_1545_39" x1="8" y1="35.5" x2="38.0109" y2="10.5484" gradientUnits="userSpaceOnUse">
<stop stop-color="#27AE60"/>
<stop offset="1" stop-color="#2E86DE"/>
</linearGradient>
</defs>
</svg>
