<svg width="48" height="48" viewBox="0 0 48 48" fill="none" xmlns="http://www.w3.org/2000/svg">
<rect width="48" height="48" rx="8.88889" fill="white"/>
<path d="M18 12H26V27C26 28.8 25.3 30.4 24.2 31.5C23.1 32.6 21.5 33.2 19.8 33.2C18.1 33.2 16.5 32.6 15.4 31.5C14.3 30.4 13.6 28.8 13.6 27H17.4C17.4 27.8 17.7 28.5 18.1 29C18.5 29.5 19.1 29.8 19.8 29.8C20.5 29.8 21.1 29.5 21.5 29C21.9 28.5 22.2 27.8 22.2 27V12H18Z" fill="url(#paint0_linear_1545_39)"/>
<defs>
<linearGradient id="paint0_linear_1545_39" x1="8" y1="35.5" x2="38.0109" y2="10.5484" gradientUnits="userSpaceOnUse">
<stop stop-color="#27AE60"/>
<stop offset="1" stop-color="#2E86DE"/>
</linearGradient>
</defs>
</svg>
