<svg xmlns="http://www.w3.org/2000/svg" viewBox="0 0 48 48">
  <path fill="#039BE5" d="M24,29.5c-6.903,0-11.5-3.597-11.5-6.5v-2h23v2C35.5,25.903,30.903,29.5,24,29.5z"/>
  <path fill="#039BE5" d="M24,37.5c-6.903,0-11.5-3.597-11.5-6.5v-2h23v2C35.5,33.903,30.903,37.5,24,37.5z"/>
  <path fill="#1976D2" d="M24 24A12.5 6.5 0 1 0 24 37A12.5 6.5 0 1 0 24 24Z"/>
  <path fill="#BBDEFB" d="M24 21A12.5 6.5 0 1 0 24 34A12.5 6.5 0 1 0 24 21Z"/>
  <ellipse cx="24" cy="18" fill="#1E88E5" rx="12.5" ry="6.5"/>
  <path fill="#BBDEFB" d="M13.277,15.792l2.166-1.069L16,17.5l-2.168,1.291L13.277,15.792z"/>
  <path fill="#0277BD" d="M26,20h-4v-6h4V20z M31,20h-4v-6h4V20z M36,20h-4v-6h4V20z M21,20h-4v-6h4V20z"/>
  <path fill="#0277BD" d="M41,20h-4v-6h4V20z M16,20h-4v-6h4V20z M26,13h-4V7h4V13z M31,13h-4V7h4V13z"/>
</svg>
