<svg xmlns="http://www.w3.org/2000/svg" viewBox="0 0 48 48">
  <path fill="#0277BD" d="M24.047,5c-1.555,0.005-2.633,0.142-3.936,0.367c-3.848,0.67-4.549,2.077-4.549,4.67V14h9v2H11.22c-2.647,0-4.944,1.592-5.671,4.615c-0.826,3.465-0.863,5.629,0,9.28c0.639,2.715,2.167,4.615,4.814,4.615h3.111v-4.136c0-3.006,2.6-5.664,5.671-5.664h8.944c2.523,0,4.549-2.084,4.549-4.615V10.037c0-2.462-2.078-4.31-4.549-4.67C27.883,5.137,25.601,4.995,24.047,5z M18.734,7.669c0.942,0,1.703,0.778,1.703,1.732c0,0.942-0.761,1.704-1.703,1.704c-0.937,0-1.704-0.762-1.704-1.704C17.03,8.447,17.797,7.669,18.734,7.669z"/>
  <path fill="#FFC107" d="M23.078,43c1.555-0.005,2.633-0.142,3.936-0.367c3.848-0.67,4.549-2.077,4.549-4.67V34h-9v-2h13.558c2.647,0,4.944-1.592,5.671-4.615c0.826-3.465,0.863-5.629,0-9.28c-0.639-2.715-2.167-4.615-4.814-4.615h-3.111v4.136c0,3.006-2.6,5.664-5.671,5.664h-8.944c-2.523,0-4.549,2.084-4.549,4.615v8.373c0,2.462,2.078,4.31,4.549,4.67C19.437,42.863,21.519,43.005,23.078,43z M28.063,40.331c-0.942,0-1.703-0.778-1.703-1.732c0-0.942,0.761-1.704,1.703-1.704c0.937,0,1.704,0.762,1.704,1.704C29.767,39.553,29,40.331,28.063,40.331z"/>
</svg>
